<?xml version="1.0" encoding="utf-8"?>
<!-- Generator: Adobe Illustrator 16.0.0, SVG Export Plug-In . SVG Version: 6.00 Build 0)  -->
<!DOCTYPE svg PUBLIC "-//W3C//DTD SVG 1.1//EN" "http://www.w3.org/Graphics/SVG/1.1/DTD/svg11.dtd">
<svg version="1.1" id="Layer_1" xmlns="http://www.w3.org/2000/svg" xmlns:xlink="http://www.w3.org/1999/xlink" x="0px" y="0px"
	 width="391.842px" height="358.261px" viewBox="0 0 391.842 358.261" enable-background="new 0 0 391.842 358.261"
	 xml:space="preserve">
<g>
	<path fill="#FFFFFF" d="M368.932,269.734l-6.221,15.656h3.454l1.095-3.003h6.521l1.119,3.003h3.457l-6.334-15.656H368.932z
		 M368.314,279.477l2.162-5.92l2.213,5.92H368.314z"/>
	<path fill="#FFFFFF" d="M306.536,270.495c-1.033-0.483-2.313-0.759-4.489-0.759h-5.68v15.657h5.68c2.177,0,3.456-0.274,4.489-0.761
		c2.424-1.152,3.882-3.549,3.882-7.069C310.417,274.047,308.959,271.647,306.536,270.495 M305.291,281.873
		c-0.578,0.365-1.607,0.608-2.891,0.608h-2.841v-9.832h2.841c1.283,0,2.313,0.243,2.891,0.606c1.42,0.88,1.908,2.642,1.908,4.309
		C307.199,279.232,306.71,280.995,305.291,281.873"/>
	<polygon fill="#FFFFFF" points="315.455,282.481 315.455,278.81 323.009,278.81 323.009,275.896 315.455,275.896 315.455,272.648 
		324.252,272.648 324.894,269.735 312.262,269.735 312.262,285.393 325.436,285.393 324.492,282.481 	"/>
	<rect x="357.733" y="269.734" fill="#FFFFFF" width="3.191" height="15.656"/>
	<polygon fill="#FFFFFF" points="390.899,282.48 383.344,282.48 383.344,269.734 380.152,269.734 380.152,285.391 391.842,285.391 	
		"/>
	<polygon fill="#FFFFFF" points="338.454,279.779 330.626,269.735 327.146,269.735 327.146,285.393 330.324,285.393 
		330.324,274.347 338.757,285.393 341.647,285.393 341.647,269.735 338.454,269.735 	"/>
	<path fill="#FFFFFF" d="M260.062,270.251c-0.92-0.364-1.925-0.516-4.288-0.516h-6.433v15.657h3.192v-5.189h3.24
		c2.363,0,3.368-0.151,4.288-0.514c1.998-0.791,3.028-2.459,3.028-4.734C263.09,272.708,262.06,271.041,260.062,270.251
		 M258.691,276.988c-0.427,0.183-0.918,0.304-2.575,0.304h-3.582v-4.646h3.582c1.657,0,2.148,0.121,2.575,0.307
		c0.844,0.361,1.181,1.151,1.181,2.032C259.872,275.863,259.533,276.623,258.691,276.988"/>
	<path fill="#FFFFFF" d="M275.103,278.96v-0.063c1.912-0.544,3.155-1.88,3.155-4.306c0-1.76-0.879-3.398-2.639-4.25
		c-0.753-0.363-1.696-0.606-3.418-0.606h-7.465v15.657h3.18v-5.554h1.909c0.817,0,1.371,0.092,1.886,0.305
		c1.394,0.576,2.399,2.125,3.481,5.249h3.708C277.958,282.631,276.712,280.144,275.103,278.96 M273.948,276.653
		c-0.352,0.182-0.843,0.276-1.81,0.276h-4.222v-4.281h4.222c0.967,0,1.458,0.09,1.81,0.271c0.729,0.365,1.093,1.062,1.093,1.854
		C275.041,275.593,274.676,276.29,273.948,276.653"/>
	<polygon fill="#FFFFFF" points="342.891,272.649 347.955,272.649 347.955,285.393 351.134,285.393 351.134,272.649 
		355.786,272.649 356.726,269.735 342.891,269.735 	"/>
	<path fill="#FFFFFF" d="M290.65,279.202c0,1-0.128,1.518-0.315,1.941c-0.565,1.336-1.936,1.913-3.417,1.913
		c-1.496,0-2.854-0.577-3.434-1.913c-0.187-0.426-0.301-0.941-0.301-1.941v-9.468h-3.191v9.498c0,1.427,0.151,2.184,0.364,2.759
		c0.943,2.582,3.495,3.824,6.562,3.824c3.065,0,5.603-1.242,6.547-3.824c0.214-0.575,0.366-1.332,0.366-2.759v-9.498h-3.181V279.202
		z"/>
	<path fill="#FFCD0A" d="M292.309,290.705c-0.988,4.41-2.156,8.68-3.887,12.828c-0.303,0.061-0.786,0.121-1.249,0.121
		c-0.443,0-0.887-0.061-1.229-0.121l-2.215-7.593l-0.322-1.429l-0.321,1.45l-2.457,7.552c-0.281,0.06-0.745,0.12-1.208,0.12
		c-0.523,0-0.987-0.061-1.35-0.12c-1.651-4.067-2.759-8.338-3.604-12.828c0.483-0.121,1.086-0.201,1.671-0.201
		c0.281,0,0.585,0.021,0.845,0.06c0.444,3.184,1.291,6.988,2.457,10.574l0.323-1.412l2.517-8.055
		c0.383-0.101,0.785-0.118,1.168-0.118c0.382,0,0.767,0.018,1.147,0.118l2.375,8.055l0.344,1.43
		c1.228-3.685,2.115-7.408,2.657-10.571c0.222-0.06,0.483-0.08,0.746-0.08C291.3,290.484,291.985,290.585,292.309,290.705"/>
	<path fill="#FFCD0A" d="M304.853,302.485c0,0.363-0.04,0.725-0.14,1.067h-8.458v-12.927h8.276c0.08,0.322,0.121,0.704,0.121,1.047
		c0,0.362-0.041,0.686-0.121,1.027h-6.001v3.201h5.337c0.079,0.343,0.121,0.685,0.121,1.027c0,0.341-0.042,0.665-0.121,1.026h-5.337
		v3.544h6.183C304.813,301.821,304.853,302.163,304.853,302.485"/>
	<path fill="#FFCD0A" d="M315.002,297.089c0-3.986,2.842-6.847,6.646-6.847c1.793,0,3.082,0.525,3.968,1.209
		c-0.121,0.684-0.604,1.45-1.249,1.792c-0.827-0.563-1.631-0.845-2.679-0.845c-2.437,0-4.228,1.771-4.228,4.69
		c0,2.88,1.791,4.651,4.127,4.651c1.51,0,2.297-0.401,2.979-0.965c0.728,0.422,1.049,0.927,1.209,1.792
		c-0.765,0.643-2.032,1.328-4.249,1.328C317.582,303.896,315.002,301.097,315.002,297.089"/>
	<path fill="#FFCD0A" d="M340.375,303.413c-0.443,0.16-0.906,0.221-1.43,0.221c-0.301,0-0.664-0.02-0.945-0.081l-1.148-3.1h-5.075
		l-1.106,3.1c-0.343,0.062-0.706,0.081-1.028,0.081c-0.481,0-0.906-0.061-1.268-0.221l4.813-12.787
		c0.384-0.101,0.806-0.121,1.188-0.121c0.403,0,0.765,0.021,1.148,0.121L340.375,303.413z M336.148,298.519l-1.491-4.026
		l-0.36-1.188l-0.365,1.188l-1.448,4.026H336.148z"/>
	<path fill="#FFCD0A" d="M354.03,303.433c-0.504,0.141-1.147,0.201-1.813,0.201c-0.222,0-0.523,0-0.724-0.04l-2.879-4.794h-0.304
		c-0.604,0-1.248,0-1.894-0.039v4.792c-0.382,0.081-0.745,0.121-1.146,0.121c-0.384,0-0.745-0.04-1.148-0.121v-12.726
		c1.188-0.263,2.758-0.425,4.128-0.425c3.586,0,5.137,1.592,5.137,4.008c0,1.935-1.028,3.223-2.519,3.887L354.03,303.433z
		 M348.371,296.847c1.935,0,2.7-1.006,2.7-2.315c0-1.348-0.867-2.154-2.721-2.154c-0.664,0-1.308,0.04-1.934,0.101v4.33
		C347.083,296.847,347.746,296.847,348.371,296.847"/>
	<path fill="#FFCD0A" d="M366.716,302.485c0,0.363-0.041,0.725-0.142,1.067h-8.457v-12.927h8.276
		c0.08,0.322,0.121,0.704,0.121,1.047c0,0.362-0.041,0.686-0.121,1.027h-6.001v3.201h5.336c0.081,0.343,0.12,0.685,0.12,1.027
		c0,0.341-0.039,0.665-0.12,1.026h-5.336v3.544h6.182C366.675,301.821,366.716,302.163,366.716,302.485"/>
	<path fill="#FFCD0A" d="M288.619,308.651c-4.067,2.136-9.457,4.784-15.624,7.356c-45.598-25.606-31.431-66.102-4.009-52.756
		c6.865,3.341,5.078-12.164,22.702-15.795c-1.232,0.004-2.475,0.054-3.74,0.209c-7.604,0.939-14.435,4.545-19.066,10.002
		c-5.613-4.195-13.002-6.052-20.606-5.114c-14.932,1.841-26.002,13.917-24.679,26.923c2.394,23.507,41.671,40.474,49.828,45.132
		c-0.02-0.007,9.682-8.547,16.54-14.582C290.832,309.264,289.685,308.092,288.619,308.651"/>
</g>
<g>
	<path fill-rule="evenodd" clip-rule="evenodd" fill="#FFFFFF" d="M182.653,358.173c-1.129,0-2.632,0-4.135,0
		c-31.311,0-62.621-0.066-93.931,0.088c-3.645,0.018-5.363-1.143-6.962-4.412c-9.257-18.924-16.382-38.451-17.472-59.707
		c-1.687-32.871,9.721-61.402,29.868-86.686c22.935-28.779,51.724-50.26,85.111-65.43c6.266-2.846,13.588-3.777,20.541-4.595
		c9.258-1.09,17.131-4.95,24.733-9.898c6.223-4.052,12.594-7.875,18.868-11.849c12.724-8.055,26.725-9.478,41.355-8.458
		c11.937,0.832,23.859,0.361,35.321-3.624c7.914-2.751,9.723-6.444,7.156-14.338c-7.368-22.669-20.72-41.624-36.868-58.787
		c-1.444-1.535-3.466-2.525-6.406-4.61c0,3.153-0.203,4.971,0.035,6.729c0.909,6.675-1.349,12.057-6.964,15.578
		c-5.384,3.375-10.928,6.674-16.785,9.07c-7.011,2.868-13.116,0.671-16.956-5.846c-3.936-6.683-7.295-13.717-10.689-20.701
		c-2.058-4.235-0.773-7.932,3.217-10.224c9.131-5.245,18.219-10.632,27.717-15.135C262.68,3.785,267.234,3.98,271,4.601
		c10.897,1.796,20.823,6.401,29.731,12.806c25.593,18.402,48.667,39.498,65.626,66.322c5.066,8.014,8.13,17.422,11.269,26.484
		c2.303,6.649-0.954,12.136-6.382,16.208c-8.318,6.24-17.796,9.82-27.935,11.688c-17.343,3.196-33.262,9.821-46.447,21.521
		c-14.958,13.272-32.744,18.439-51.878,21.166c-10.563,1.506-21.092,3.627-31.397,6.367c-4.65,1.236-9.614,3.813-12.889,7.254
		c-10.108,10.617-20.338,21.314-28.953,33.125c-20.767,28.465-22.124,59.592-8.974,91.43
		C168.275,332.296,175.792,344.792,182.653,358.173z"/>
	<path fill-rule="evenodd" clip-rule="evenodd" fill="#FFFFFF" d="M63.083,358.017c-20.472,0-40.156,0-60.242,0
		c-0.786-14.422,1.854-28.209,5.894-41.756c9.806-32.887,27.414-61.691,47.171-89.342c2.31-3.234,4.48-6.619,7.178-9.502
		c1.219-1.301,3.572-1.541,5.412-2.264c0.18,1.99,1.053,4.234,0.43,5.928c-4.802,13.086-10.854,25.785-14.702,39.129
		c-9.094,31.523-6.107,62.494,6.865,92.561C61.756,354.319,62.292,355.923,63.083,358.017z"/>
</g>
</svg>
