<?xml version="1.0" encoding="utf-8"?>
<!-- Generator: Adobe Illustrator 16.0.0, SVG Export Plug-In . SVG Version: 6.00 Build 0)  -->
<!DOCTYPE svg PUBLIC "-//W3C//DTD SVG 1.1//EN" "http://www.w3.org/Graphics/SVG/1.1/DTD/svg11.dtd">
<svg version="1.1" id="Layer_1" xmlns="http://www.w3.org/2000/svg" xmlns:xlink="http://www.w3.org/1999/xlink" x="0px" y="0px"
	 width="17px" height="14.75px" viewBox="0 0 17 14.75" enable-background="new 0 0 17 14.75" xml:space="preserve">
<path fill="#FFFFFF" d="M12.658,8.372H5.264c-0.379,0-0.686-0.308-0.686-0.687c0-0.377,0.307-0.685,0.686-0.685h7.395
	c0.379,0,0.686,0.308,0.686,0.685C13.344,8.064,13.037,8.372,12.658,8.372"/>
<path fill="#FFFFFF" d="M8.322,11.431c-0.175,0-0.351-0.067-0.485-0.2l-3.058-3.06c-0.268-0.267-0.268-0.701,0-0.969l3.058-3.059
	c0.268-0.267,0.702-0.267,0.969,0c0.269,0.268,0.269,0.702,0,0.97L6.233,7.688l2.573,2.573c0.269,0.267,0.269,0.701,0,0.97
	C8.674,11.363,8.497,11.431,8.322,11.431"/>
</svg>
