<?xml version="1.0" encoding="utf-8"?>
<!-- Generator: Adobe Illustrator 16.0.0, SVG Export Plug-In . SVG Version: 6.00 Build 0)  -->
<!DOCTYPE svg PUBLIC "-//W3C//DTD SVG 1.1//EN" "http://www.w3.org/Graphics/SVG/1.1/DTD/svg11.dtd">
<svg version="1.1" id="Layer_1" xmlns="http://www.w3.org/2000/svg" xmlns:xlink="http://www.w3.org/1999/xlink" x="0px" y="0px"
	 width="50.833px" height="44.833px" viewBox="0 0 50.833 44.833" enable-background="new 0 0 50.833 44.833" xml:space="preserve">
<rect x="1.174" y="12.315" fill="#FFCC03" width="48.485" height="20.202"/>
<path fill="#FFFFFF" d="M23.557,21.993l-1.461-3.094c-0.185-0.392-0.554-0.661-0.982-0.719l-4.341-0.586
	c-0.83-0.113-1.421-0.859-1.336-1.692c0.087-0.879,0.888-1.506,1.762-1.382l6.107,0.866c0.417,0.06,0.779,0.319,0.964,0.697
	l5.441,10.979c0,0-5.429-3.826-11.116-2.792L23.557,21.993z"/>
<path fill="#FFFFFF" d="M36.106,20.83c0-1.963-1.59-3.554-3.553-3.554c-1.962,0-3.553,1.591-3.553,3.554
	c0,1.964,1.591,3.554,3.553,3.554C34.516,24.383,36.106,22.793,36.106,20.83"/>
<path fill="#FFFFFF" d="M30.784,30.328c-1.934,0-3.929-0.899-5.863-1.772c-1.522-0.686-3.093-1.396-4.535-1.607
	c-1.842-0.272-3.629,0.675-4.81,1.515c-0.372,0.265-0.889,0.177-1.152-0.196c-0.266-0.371-0.179-0.889,0.193-1.152
	c1.426-1.016,3.628-2.155,6.01-1.802c1.669,0.246,3.35,1.003,4.974,1.735c1.962,0.885,3.799,1.723,5.453,1.617
	c1.822-0.114,3.485-1.097,4.56-1.901c0.363-0.273,0.882-0.201,1.156,0.168c0.274,0.363,0.198,0.882-0.165,1.156
	c-1.254,0.938-3.218,2.088-5.448,2.227C31.034,30.324,30.908,30.328,30.784,30.328"/>
</svg>
