<?xml version="1.0" encoding="utf-8"?>
<!-- Generator: Adobe Illustrator 16.0.0, SVG Export Plug-In . SVG Version: 6.00 Build 0)  -->
<!DOCTYPE svg PUBLIC "-//W3C//DTD SVG 1.1//EN" "http://www.w3.org/Graphics/SVG/1.1/DTD/svg11.dtd">
<svg version="1.1" id="Layer_1" xmlns="http://www.w3.org/2000/svg" xmlns:xlink="http://www.w3.org/1999/xlink" x="0px" y="0px"
	 width="17px" height="14.75px" viewBox="0 0 17 14.75" enable-background="new 0 0 17 14.75" xml:space="preserve">
<path fill="#8E91A0" d="M3.942,11.873c-0.084,0-0.158-0.014-0.235-0.057c-0.152-0.082-0.24-0.248-0.24-0.412v-6.69
	c0-1.023,0.827-1.838,1.844-1.838h6.759c1.018,0,1.843,0.814,1.843,1.838V8.5c0,1.025-0.825,1.854-1.843,1.854H6.623l-2.438,1.463
	C4.107,11.859,4.026,11.873,3.942,11.873 M5.311,3.816c-0.484,0-0.892,0.413-0.892,0.898v5.844l1.831-1.09
	c0.07-0.043,0.158-0.055,0.242-0.055h5.577c0.49,0,0.892-0.416,0.892-0.914V4.714c0-0.485-0.406-0.898-0.892-0.898H5.311z"/>
<path fill="#8E91A0" d="M10.909,6H6.581C6.319,6,6.105,5.792,6.105,5.53c0-0.265,0.214-0.47,0.476-0.47h4.328
	c0.26,0,0.476,0.205,0.476,0.47C11.385,5.792,11.169,6,10.909,6"/>
<path fill="#8E91A0" d="M9.015,8.182H6.583c-0.264,0-0.478-0.207-0.478-0.468c0-0.264,0.214-0.469,0.478-0.469h2.432
	c0.263,0,0.475,0.205,0.475,0.469C9.489,7.975,9.277,8.182,9.015,8.182"/>
</svg>
