<?xml version="1.0" encoding="utf-8"?>
<!-- Generator: Adobe Illustrator 16.0.0, SVG Export Plug-In . SVG Version: 6.00 Build 0)  -->
<!DOCTYPE svg PUBLIC "-//W3C//DTD SVG 1.1//EN" "http://www.w3.org/Graphics/SVG/1.1/DTD/svg11.dtd">
<svg version="1.1" id="Layer_1" xmlns="http://www.w3.org/2000/svg" xmlns:xlink="http://www.w3.org/1999/xlink" x="0px" y="0px"
	 width="17px" height="14.75px" viewBox="189.5 118.719 17 14.75" enable-background="new 189.5 118.719 17 14.75"
	 xml:space="preserve">
<path fill="#8E91A0" d="M198,123.439c-0.197,0-0.396-0.063-0.529-0.2c-0.132-0.129-0.196-0.329-0.196-0.527
	c0-0.194,0.064-0.329,0.196-0.458c0.265-0.329,0.729-0.329,1.058,0c0.132,0.129,0.196,0.264,0.196,0.458
	c0,0.198-0.064,0.398-0.196,0.527C198.329,123.375,198.2,123.439,198,123.439"/>
<path fill="#8E91A0" d="M198,126.475c-0.197,0-0.396-0.129-0.529-0.264c-0.132-0.129-0.196-0.266-0.196-0.465
	c0-0.193,0.064-0.394,0.196-0.521c0.265-0.265,0.729-0.265,1.058,0c0.132,0.128,0.196,0.328,0.196,0.521
	c0,0.136-0.064,0.336-0.196,0.465C198.329,126.346,198.2,126.475,198,126.475"/>
<path fill="#8E91A0" d="M198,129.447c-0.197,0-0.396-0.064-0.529-0.2c-0.132-0.129-0.196-0.329-0.196-0.528
	c0-0.193,0.064-0.329,0.196-0.458c0.265-0.335,0.793-0.335,0.99,0c0.199,0.064,0.264,0.265,0.264,0.458
	c0,0.199-0.064,0.399-0.264,0.528C198.329,129.382,198.2,129.447,198,129.447"/>
</svg>
