<?xml version="1.0" encoding="utf-8"?>
<!-- Generator: Adobe Illustrator 16.0.0, SVG Export Plug-In . SVG Version: 6.00 Build 0)  -->
<!DOCTYPE svg PUBLIC "-//W3C//DTD SVG 1.1//EN" "http://www.w3.org/Graphics/SVG/1.1/DTD/svg11.dtd">
<svg version="1.1" id="Layer_1" xmlns="http://www.w3.org/2000/svg" xmlns:xlink="http://www.w3.org/1999/xlink" x="0px" y="0px"
	 width="50.833px" height="44.833px" viewBox="170.754 157.63 50.833 44.833" enable-background="new 170.754 157.63 50.833 44.833"
	 xml:space="preserve">
<g opacity="0.5">
	<g>
		<defs>
			<rect id="SVGID_1_" x="481.964" y="83.63" width="38.791" height="21"/>
		</defs>
		<clipPath id="SVGID_2_">
			<use xlink:href="#SVGID_1_"  overflow="visible"/>
		</clipPath>
		<g clip-path="url(#SVGID_2_)">
			<defs>
				<rect id="SVGID_3_" x="481.964" y="83.63" width="38.791" height="21"/>
			</defs>
			<clipPath id="SVGID_4_">
				<use xlink:href="#SVGID_3_"  overflow="visible"/>
			</clipPath>
			<path clip-path="url(#SVGID_4_)" fill="#EE3B26" d="M518.087,104.63H484.63c-1.473,0-2.666-1.194-2.666-2.667V86.297
				c0-1.473,1.193-2.667,2.666-2.667h33.457c1.473,0,2.668,1.194,2.668,2.667v15.666C520.755,103.437,519.56,104.63,518.087,104.63"
				/>
		</g>
	</g>
</g>
<path fill="#FFFFFF" d="M494.8,93.458c-0.018,1.491-1.24,2.687-2.73,2.67c-1.492-0.017-2.688-1.239-2.67-2.731
	c0.016-1.491,1.238-2.686,2.73-2.669C493.62,90.746,494.815,91.967,494.8,93.458"/>
<path fill="#FFFFFF" d="M501.999,93.54c-0.018,1.491-1.238,2.686-2.73,2.669c-1.49-0.016-2.686-1.239-2.67-2.73
	c0.018-1.491,1.24-2.687,2.73-2.67C500.821,90.826,502.017,92.049,501.999,93.54"/>
<path fill="#FFFFFF" d="M509.8,93.628c-0.018,1.491-1.24,2.687-2.73,2.669c-1.492-0.016-2.688-1.239-2.67-2.73
	c0.018-1.491,1.238-2.687,2.73-2.669C508.62,90.914,509.815,92.137,509.8,93.628"/>
<rect x="-179.246" y="-487.37" fill="none" width="750" height="1334"/>
<g opacity="0.5">
	<g>
		<defs>
			<rect id="SVGID_5_" x="481.964" y="83.63" width="38.791" height="21"/>
		</defs>
		<clipPath id="SVGID_6_">
			<use xlink:href="#SVGID_5_"  overflow="visible"/>
		</clipPath>
		<g clip-path="url(#SVGID_6_)">
			<defs>
				<rect id="SVGID_7_" x="481.964" y="83.63" width="38.791" height="21"/>
			</defs>
			<clipPath id="SVGID_8_">
				<use xlink:href="#SVGID_7_"  overflow="visible"/>
			</clipPath>
			<path clip-path="url(#SVGID_8_)" fill="#EE3B26" d="M518.087,104.63H484.63c-1.473,0-2.666-1.194-2.666-2.667V86.297
				c0-1.473,1.193-2.667,2.666-2.667h33.457c1.473,0,2.668,1.194,2.668,2.667v15.666C520.755,103.437,519.56,104.63,518.087,104.63"
				/>
		</g>
	</g>
</g>
<path fill="#FFFFFF" d="M494.8,93.458c-0.018,1.491-1.24,2.687-2.73,2.67c-1.492-0.017-2.688-1.239-2.67-2.731
	c0.016-1.491,1.238-2.686,2.73-2.669C493.62,90.746,494.815,91.967,494.8,93.458"/>
<path fill="#FFFFFF" d="M501.999,93.54c-0.018,1.491-1.238,2.686-2.73,2.669c-1.49-0.016-2.686-1.239-2.67-2.73
	c0.018-1.491,1.24-2.687,2.73-2.67C500.821,90.826,502.017,92.049,501.999,93.54"/>
<path fill="#FFFFFF" d="M509.8,93.628c-0.018,1.491-1.24,2.687-2.73,2.669c-1.492-0.016-2.688-1.239-2.67-2.73
	c0.018-1.491,1.238-2.687,2.73-2.669C508.62,90.914,509.815,92.137,509.8,93.628"/>
<rect x="-179.246" y="-487.37" fill="none" width="750" height="1334"/>
<g>
	<polygon fill="#EE3B26" points="174.872,175.835 174.872,179.155 171.679,179.155 171.679,180.003 174.872,180.003 
		174.872,183.351 175.775,183.351 175.775,180.003 178.968,180.003 178.968,179.155 175.775,179.155 175.775,175.835 	"/>
	<polygon fill="#EE3B26" points="183.599,183.351 184.827,183.351 184.827,179.042 188.43,179.042 188.43,178.025 184.827,178.025 
		184.827,174.861 188.727,174.861 188.727,173.83 183.599,173.83 	"/>
	<path fill="#EE3B26" d="M200.547,183.351h1.244v-10.03h-1.244V183.351z M197.214,183.351h1.243v-10.03h-1.243V183.351z
		 M192.327,177.291c1.47,0,2.049,1.469,2.049,2.627c0,1.539-0.89,2.654-2.077,2.654c-1.214,0-2.077-1.129-2.077-2.625
		C190.223,178.646,190.859,177.291,192.327,177.291z M192.356,176.358c-1.894,0-3.391,1.342-3.391,3.63
		c0,2.162,1.427,3.518,3.278,3.518c1.652,0,3.405-1.102,3.405-3.631C195.648,177.785,194.319,176.358,192.356,176.358z"/>
	<path fill="#EE3B26" d="M206.749,177.291c1.469,0,2.049,1.469,2.049,2.627c0,1.539-0.89,2.654-2.077,2.654
		c-1.216,0-2.076-1.129-2.076-2.625C204.645,178.646,205.279,177.291,206.749,177.291z M206.776,176.358
		c-1.894,0-3.391,1.342-3.391,3.63c0,2.162,1.428,3.518,3.277,3.518c1.653,0,3.406-1.102,3.406-3.631
		C210.069,177.785,208.74,176.358,206.776,176.358z"/>
	<path fill="#EE3B26" d="M210.731,176.514l2.062,6.837h1.131l1.102-3.25c0.24-0.734,0.45-1.44,0.621-2.26h0.027
		c0.171,0.805,0.369,1.484,0.606,2.246l1.047,3.264h1.131l2.204-6.837h-1.231l-0.973,3.433c-0.227,0.805-0.411,1.525-0.524,2.217
		h-0.043c-0.152-0.691-0.351-1.412-0.606-2.232l-1.059-3.417h-1.046l-1.115,3.49c-0.227,0.732-0.452,1.469-0.607,2.16h-0.043
		c-0.127-0.707-0.311-1.412-0.508-2.176l-0.903-3.474H210.731z"/>
</g>
</svg>
