<?xml version="1.0" encoding="utf-8"?>
<!-- Generator: Adobe Illustrator 16.0.0, SVG Export Plug-In . SVG Version: 6.00 Build 0)  -->
<!DOCTYPE svg PUBLIC "-//W3C//DTD SVG 1.1//EN" "http://www.w3.org/Graphics/SVG/1.1/DTD/svg11.dtd">
<svg version="1.1" id="Layer_1" xmlns="http://www.w3.org/2000/svg" xmlns:xlink="http://www.w3.org/1999/xlink" x="0px" y="0px"
	 width="50.833px" height="44.833px" viewBox="170.754 157.63 50.833 44.833" enable-background="new 170.754 157.63 50.833 44.833"
	 xml:space="preserve">
<path fill-rule="evenodd" clip-rule="evenodd" fill="#F16251" d="M202.104,173.398c1.695,0,3.171-0.056,4.641,0.016
	c1.403,0.069,2.825,0.15,4.195,0.44c2.653,0.561,4.661,3.484,3.313,6.511c-0.371,0.833-0.424,1.666,0.076,2.493
	c0.891,1.478,0.689,2.898-0.359,4.194c-0.405,0.503-0.521,0.941-0.339,1.568c0.492,1.711,0.142,3.204-1.145,4.519
	c-0.464,0.472-0.827,1.167-0.961,1.818c-0.574,2.776-1.701,3.953-4.481,4.173c-2.752,0.217-5.522,0.461-8.272,0.368
	c-3.554-0.12-7.097-0.548-10.642-0.871c-0.987-0.091-1.963-0.346-2.949-0.388c-0.548-0.024-1.106,0.337-1.665,0.353
	c-1.801,0.048-3.605,0.039-5.407,0.013c-1.349-0.02-2.196-0.817-2.202-2.165c-0.026-5.602-0.025-11.202,0.001-16.805
	c0.005-1.179,0.84-2.086,1.965-2.122c1.929-0.061,3.863-0.037,5.793-0.008c0.664,0.009,1.323,0.633,1.992-0.001
	c0.293-0.278,0.713-0.494,0.868-0.833c1.683-3.686,4.385-6.466,7.638-8.782c1.632-1.162,2.471-2.742,2.415-4.779
	c-0.013-0.442,0.086-0.894,0.173-1.332c0.346-1.729,1.503-2.734,3.434-3.007c1.408-0.199,2.868,0.559,3.591,1.935
	c1.296,2.466,1.509,5.018,0.442,7.623c-0.524,1.278-1.114,2.53-1.661,3.8C202.408,172.471,202.304,172.831,202.104,173.398z
	 M186.739,187.86c0,2.187,0.065,4.378-0.028,6.563c-0.044,1.044,0.385,1.339,1.295,1.405c1.534,0.113,3.068,0.255,4.598,0.426
	c4.807,0.533,9.609,0.536,14.419,0.011c1.095-0.117,1.554-0.669,1.678-1.622c0.176-1.356,0.662-2.53,1.696-3.468
	c0.596-0.541,0.86-1.234,0.454-1.996c-0.778-1.458-0.51-2.644,0.728-3.725c0.247-0.215,0.39-0.882,0.241-1.161
	c-0.883-1.657-0.907-3.284-0.214-5.006c0.516-1.279-0.006-2.316-1.338-2.68c-0.858-0.234-1.762-0.382-2.65-0.41
	c-1.896-0.061-3.796-0.014-5.694-0.02c-2.479-0.008-3.494-1.521-2.538-3.833c0.663-1.603,1.4-3.175,2.081-4.771
	c0.729-1.708,0.739-3.426,0.002-5.144c-0.229-0.533-0.567-0.844-1.186-0.741c-0.651,0.107-0.764,0.56-0.805,1.125
	c-0.062,0.829-0.13,1.665-0.3,2.476c-0.48,2.308-1.93,3.931-3.799,5.26c-2.721,1.935-4.882,4.338-6.325,7.394
	c-0.35,0.741-1.122,1.274-1.656,1.937c-0.27,0.337-0.62,0.744-0.63,1.128C186.709,183.289,186.739,185.575,186.739,187.86z
	 M182.848,188.134c0-2.315-0.017-4.631,0.011-6.946c0.008-0.66-0.225-0.946-0.887-0.924c-0.675,0.02-1.351-0.005-2.026,0.002
	c-1.202,0.009-1.269,0.073-1.28,1.243c-0.006,0.74-0.001,1.48-0.001,2.22c0,3.216,0,6.433,0,9.647c0,2.474,0,2.474,2.515,2.474
	c0.193,0,0.389-0.024,0.579,0.002c0.823,0.113,1.133-0.185,1.11-1.06C182.81,192.575,182.849,190.355,182.848,188.134z"/>
</svg>
