<?xml version="1.0" encoding="utf-8"?>
<!-- Generator: Adobe Illustrator 16.0.0, SVG Export Plug-In . SVG Version: 6.00 Build 0)  -->
<!DOCTYPE svg PUBLIC "-//W3C//DTD SVG 1.1//EN" "http://www.w3.org/Graphics/SVG/1.1/DTD/svg11.dtd">
<svg version="1.1" id="Layer_1" xmlns="http://www.w3.org/2000/svg" xmlns:xlink="http://www.w3.org/1999/xlink" x="0px" y="0px"
	 width="50.833px" height="44.833px" viewBox="0 0 50.833 44.833" enable-background="new 0 0 50.833 44.833" xml:space="preserve">
<circle fill="#F16251" cx="26.374" cy="22.417" r="21.793"/>
<path fill="#FFFFFF" d="M31.71,16.189c1.348,0,2.521-0.044,3.688,0.013c1.115,0.055,2.246,0.119,3.335,0.35
	c2.108,0.445,3.705,2.77,2.633,5.176c-0.295,0.662-0.337,1.325,0.061,1.981c0.709,1.176,0.548,2.305-0.284,3.334
	c-0.322,0.4-0.414,0.748-0.27,1.246c0.391,1.361,0.112,2.549-0.911,3.594c-0.368,0.375-0.657,0.928-0.764,1.445
	c-0.456,2.205-1.352,3.143-3.563,3.316c-2.188,0.172-4.389,0.365-6.574,0.293c-2.826-0.096-5.642-0.436-8.46-0.693
	c-0.784-0.072-1.561-0.273-2.344-0.309c-0.436-0.018-0.879,0.27-1.323,0.281c-1.432,0.039-2.866,0.031-4.298,0.01
	c-1.072-0.016-1.746-0.648-1.75-1.721c-0.02-4.453-0.02-8.904,0.001-13.358c0.003-0.938,0.667-1.658,1.562-1.687
	c1.533-0.049,3.07-0.03,4.604-0.007c0.528,0.008,1.051,0.504,1.584,0c0.233-0.221,0.566-0.393,0.689-0.663
	c1.338-2.93,3.486-5.139,6.072-6.98c1.297-0.924,1.964-2.18,1.919-3.799c-0.01-0.351,0.068-0.711,0.139-1.059
	c0.274-1.374,1.193-2.174,2.729-2.391c1.119-0.158,2.279,0.445,2.854,1.538c1.03,1.961,1.2,3.989,0.353,6.06
	c-0.417,1.016-0.886,2.011-1.321,3.021C31.953,15.453,31.87,15.738,31.71,16.189z M19.497,27.685c0,1.738,0.052,3.48-0.022,5.217
	c-0.036,0.83,0.306,1.064,1.03,1.117c1.219,0.09,2.439,0.203,3.654,0.34c3.821,0.424,7.639,0.424,11.462,0.008
	c0.87-0.094,1.234-0.531,1.334-1.289c0.14-1.078,0.525-2.012,1.348-2.758c0.474-0.43,0.684-0.98,0.361-1.586
	c-0.619-1.158-0.406-2.102,0.578-2.961c0.197-0.172,0.311-0.701,0.191-0.922c-0.701-1.319-0.721-2.612-0.17-3.98
	c0.41-1.017-0.005-1.841-1.063-2.131c-0.682-0.186-1.4-0.303-2.106-0.325c-1.507-0.05-3.018-0.012-4.525-0.017
	c-1.972-0.006-2.778-1.208-2.018-3.046c0.526-1.275,1.112-2.524,1.654-3.793c0.579-1.357,0.586-2.723,0.001-4.088
	c-0.182-0.424-0.451-0.671-0.942-0.589c-0.519,0.085-0.607,0.446-0.641,0.895c-0.049,0.659-0.103,1.323-0.238,1.968
	c-0.382,1.834-1.533,3.125-3.02,4.181c-2.163,1.538-3.881,3.448-5.028,5.877c-0.278,0.589-0.892,1.013-1.316,1.54
	c-0.215,0.269-0.493,0.591-0.5,0.897C19.473,24.052,19.497,25.869,19.497,27.685z M16.404,27.902c0-1.84-0.014-3.68,0.009-5.521
	c0.007-0.525-0.18-0.751-0.705-0.734c-0.536,0.016-1.073-0.005-1.611,0.001c-0.955,0.007-1.008,0.058-1.017,0.988
	c-0.005,0.588-0.001,1.177-0.001,1.766c0,2.557,0,5.113,0,7.668c0,1.967,0,1.967,2,1.967c0.154,0,0.309-0.02,0.459,0.002
	c0.655,0.09,0.901-0.148,0.883-0.844C16.374,31.433,16.405,29.669,16.404,27.902z"/>
</svg>
