<?xml version="1.0" encoding="utf-8"?>
<!-- Generator: Adobe Illustrator 16.0.0, SVG Export Plug-In . SVG Version: 6.00 Build 0)  -->
<!DOCTYPE svg PUBLIC "-//W3C//DTD SVG 1.1//EN" "http://www.w3.org/Graphics/SVG/1.1/DTD/svg11.dtd">
<svg version="1.1" id="Layer_1" xmlns="http://www.w3.org/2000/svg" xmlns:xlink="http://www.w3.org/1999/xlink" x="0px" y="0px"
	 width="50.833px" height="44.833px" viewBox="0 0 50.833 44.833" enable-background="new 0 0 50.833 44.833" xml:space="preserve">
<path fill="#E20000" d="M31.747,22.774c-0.034,3.576-2.862,6.324-6.45,6.269c-3.557-0.063-6.268-2.906-6.198-6.516
	c0.064-3.47,2.862-6.187,6.35-6.167C29.053,16.384,31.776,19.159,31.747,22.774"/>
<path fill="#E20000" d="M2.129,23.1c0.006-6.035,1.983-11.323,6.131-15.721c0.489-0.523,1.818-0.995,2.216-0.715
	c1.187,0.837,0.201,1.678-0.437,2.411c-7.23,8.322-7.289,19.316-0.139,27.611c0.215,0.252,0.593,0.467,0.628,0.734
	c0.076,0.582-0.023,1.189-0.046,1.785c-0.593-0.047-1.422,0.131-1.716-0.191c-1.201-1.289-2.374-2.645-3.307-4.133
	C3.223,31.297,2.124,27.344,2.129,23.1"/>
<path fill="#E20000" d="M48.703,22.205c0.006,6.692-2.007,11.823-5.951,16.192c-0.622,0.688-1.384,1.814-2.35,0.676
	c-0.309-0.367,0.035-1.717,0.494-2.256c7.144-8.309,7.19-19.327,0.041-27.617c-0.303-0.343-0.773-0.675-0.832-1.064
	c-0.081-0.5,0.029-1.187,0.343-1.542c0.198-0.227,1.054-0.195,1.367,0.046c0.722,0.547,1.338,1.254,1.902,1.972
	C47.04,12.824,48.75,17.609,48.703,22.205"/>
<path fill="#E20000" d="M13.482,9.566c0.474,0.366,1.094,0.623,1.097,0.887c0.008,0.584-0.198,1.225-0.486,1.757
	c-1.21,2.225-2.929,4.284-3.639,6.646c-1.594,5.335-0.262,10.222,3.293,14.539c0.457,0.553,0.803,1.893,0.491,2.244
	c-0.957,1.1-1.701,0.047-2.356-0.678c-6.099-6.76-6.079-17.385,0.055-24.098C12.362,10.398,12.909,10.049,13.482,9.566"/>
<path fill="#E20000" d="M43.502,23.018c-0.018,4.582-1.513,8.619-4.631,11.965c-0.482,0.523-1.763,1-2.205,0.732
	c-1.086-0.674-0.325-1.529,0.297-2.266c5.498-6.547,5.445-14.43-0.041-21.111c-0.424-0.515-0.354-1.434-0.518-2.167
	c0.78,0.171,1.839,0.076,2.298,0.556C41.949,14.145,43.52,18.287,43.502,23.018"/>
<path fill="#E20000" d="M35.718,22.72c0.053-2.237-0.888-4.387-2.383-6.399c-0.442-0.593-0.786-1.955-0.472-2.28
	c0.954-0.978,1.733-0.003,2.385,0.739c3.943,4.514,3.973,11.667,0.064,16.251c-0.634,0.748-1.373,1.762-2.356,0.781
	c-0.319-0.316-0.006-1.674,0.419-2.266C34.813,27.575,35.708,25.473,35.718,22.72"/>
<path fill="#E20000" d="M12.638,22.612c0.038-2.912,1.027-5.78,3.278-8.086c0.451-0.465,1.431-0.41,2.167-0.599
	c-0.111,0.733,0.023,1.655-0.373,2.167c-3.444,4.474-3.487,8.974-0.154,13.538c0.41,0.553,0.209,1.549,0.291,2.344
	c-0.718-0.256-1.658-0.305-2.121-0.801C13.578,28.874,12.647,26.047,12.638,22.612"/>
</svg>
