<?xml version="1.0" encoding="utf-8"?>
<!-- Generator: Adobe Illustrator 16.0.0, SVG Export Plug-In . SVG Version: 6.00 Build 0)  -->
<!DOCTYPE svg PUBLIC "-//W3C//DTD SVG 1.1//EN" "http://www.w3.org/Graphics/SVG/1.1/DTD/svg11.dtd">
<svg version="1.1" id="Layer_1" xmlns="http://www.w3.org/2000/svg" xmlns:xlink="http://www.w3.org/1999/xlink" x="0px" y="0px"
	 width="17px" height="14.75px" viewBox="0 0 17 14.75" enable-background="new 0 0 17 14.75" xml:space="preserve">
<path fill="#8E91A0" d="M8.572,11.428L8.572,11.428c-0.112,0-0.225-0.037-0.306-0.125L4.662,7.691
	C4.177,7.22,3.908,6.572,3.908,5.888c0-0.686,0.269-1.334,0.754-1.806c0.972-0.998,2.652-0.998,3.63,0l0.28,0.273l0.286-0.289
	c0.479-0.484,1.121-0.745,1.807-0.745h0.005c0.688,0,1.332,0.261,1.819,0.761c0.996,0.996,0.996,2.613,0,3.609l-3.612,3.611
	C8.796,11.391,8.685,11.428,8.572,11.428 M6.475,4.168c-0.448,0-0.878,0.187-1.202,0.509c-0.33,0.325-0.505,0.759-0.505,1.21
	c0,0.449,0.175,0.883,0.505,1.207l3.3,3.299l3.306-3.299c0.668-0.671,0.668-1.745,0-2.417c-0.322-0.322-0.755-0.509-1.208-0.509
	h-0.005c-0.455,0-0.878,0.187-1.202,0.509L8.871,5.263c-0.162,0.151-0.437,0.151-0.599,0L7.688,4.691
	C7.359,4.355,6.928,4.168,6.475,4.168"/>
</svg>
