<?xml version="1.0" encoding="utf-8"?>
<!-- Generator: Adobe Illustrator 16.0.0, SVG Export Plug-In . SVG Version: 6.00 Build 0)  -->
<!DOCTYPE svg PUBLIC "-//W3C//DTD SVG 1.1//EN" "http://www.w3.org/Graphics/SVG/1.1/DTD/svg11.dtd">
<svg version="1.1" id="Layer_1" xmlns="http://www.w3.org/2000/svg" xmlns:xlink="http://www.w3.org/1999/xlink" x="0px" y="0px"
	 width="50.833px" height="44.833px" viewBox="170.754 157.63 50.833 44.833" enable-background="new 170.754 157.63 50.833 44.833"
	 xml:space="preserve">
<path fill="#FFFFFF" d="M214.005,200.506c-0.621,0-1.234-0.232-1.709-0.671l-7.992-7.437h-20.334c-4.997,0-9.062-4.065-9.062-9.061
	v-14.937c0-4.997,4.064-9.061,9.062-9.061h23.477c4.994,0,9.061,4.064,9.061,9.061V198c0,0.997-0.588,1.899-1.504,2.296
	C214.681,200.435,214.341,200.506,214.005,200.506 M183.969,162.036c-3.511,0-6.365,2.854-6.365,6.365v14.937
	c0,3.508,2.854,6.364,6.365,6.364h20.866c0.34,0,0.668,0.132,0.918,0.36l8.059,7.495v-29.157c0-3.511-2.857-6.365-6.365-6.365
	H183.969z"/>
<path fill="#FFFFFF" d="M206.356,171.941h-21.235c-0.744,0-1.351-0.6-1.351-1.345c0-0.748,0.606-1.351,1.351-1.351h21.235
	c0.748,0,1.35,0.603,1.35,1.351C207.706,171.341,207.104,171.941,206.356,171.941"/>
<path fill="#FFFFFF" d="M206.356,181.271h-21.235c-0.744,0-1.351-0.604-1.351-1.348c0-0.745,0.606-1.348,1.351-1.348h21.235
	c0.748,0,1.35,0.603,1.35,1.348C207.706,180.667,207.104,181.271,206.356,181.271"/>
</svg>
