<?xml version="1.0" encoding="utf-8"?>
<!-- Generator: Adobe Illustrator 16.0.0, SVG Export Plug-In . SVG Version: 6.00 Build 0)  -->
<!DOCTYPE svg PUBLIC "-//W3C//DTD SVG 1.1//EN" "http://www.w3.org/Graphics/SVG/1.1/DTD/svg11.dtd">
<svg version="1.1" id="Layer_1" xmlns="http://www.w3.org/2000/svg" xmlns:xlink="http://www.w3.org/1999/xlink" x="0px" y="0px"
	 width="17px" height="14.75px" viewBox="189.5 118.719 17 14.75" enable-background="new 189.5 118.719 17 14.75"
	 xml:space="preserve">
<path fill="#EB1E30" d="M198.679,128.686h-2.073c-0.095,0.17-0.152,0.363-0.152,0.572c0,0.656,0.532,1.189,1.188,1.189
	c0.658,0,1.19-0.533,1.19-1.189C198.832,129.049,198.773,128.856,198.679,128.686"/>
<path fill="#EB1E30" d="M201.55,127.52c0-0.383-0.309-0.691-0.69-0.691c-0.265,0-0.48-0.215-0.48-0.48v-1.484
	c0-1.519-1.231-2.748-2.748-2.748s-2.746,1.229-2.746,2.748v1.484c0,0.381-0.31,0.691-0.69,0.691c-0.268,0-0.482,0.215-0.482,0.48
	v0.639h7.838V127.52z"/>
</svg>
