<?xml version="1.0" encoding="utf-8"?>
<!-- Generator: Adobe Illustrator 16.0.0, SVG Export Plug-In . SVG Version: 6.00 Build 0)  -->
<!DOCTYPE svg PUBLIC "-//W3C//DTD SVG 1.1//EN" "http://www.w3.org/Graphics/SVG/1.1/DTD/svg11.dtd">
<svg version="1.1" id="Layer_1" xmlns="http://www.w3.org/2000/svg" xmlns:xlink="http://www.w3.org/1999/xlink" x="0px" y="0px"
	 width="50.833px" height="44.833px" viewBox="170.754 157.63 50.833 44.833" enable-background="new 170.754 157.63 50.833 44.833"
	 xml:space="preserve">
<path fill="none" stroke="#FFFFFF" stroke-width="2" stroke-miterlimit="10" d="M208.647,189.787v-12.593
	c0-5.57-3.471-10.306-8.357-12.23c0.061-0.303,0.096-0.616,0.096-0.938c0-2.71-2.197-4.907-4.908-4.907
	c-2.71,0-4.907,2.197-4.907,4.907c0,0.322,0.036,0.634,0.094,0.938c-4.885,1.926-8.354,6.661-8.354,12.23v12.593l-3.396,3.611
	h33.125L208.647,189.787z M195.478,166.337c-1.276,0-2.313-1.035-2.313-2.313c0-1.276,1.036-2.311,2.313-2.311
	c1.277,0,2.312,1.035,2.312,2.311C197.79,165.302,196.755,166.337,195.478,166.337z M189.936,195.166h11.084
	c-0.332,2.783-2.668,4.953-5.542,4.953C192.605,200.119,190.267,197.949,189.936,195.166z"/>
</svg>
