<?xml version="1.0" encoding="utf-8"?>
<!-- Generator: Adobe Illustrator 16.0.0, SVG Export Plug-In . SVG Version: 6.00 Build 0)  -->
<!DOCTYPE svg PUBLIC "-//W3C//DTD SVG 1.1//EN" "http://www.w3.org/Graphics/SVG/1.1/DTD/svg11.dtd">
<svg version="1.1" id="Layer_1" xmlns="http://www.w3.org/2000/svg" xmlns:xlink="http://www.w3.org/1999/xlink" x="0px" y="0px"
	 width="17px" height="14.75px" viewBox="0 0 17 14.75" enable-background="new 0 0 17 14.75" xml:space="preserve">
<path fill="#FFFFFF" d="M8.5,6.924c-1.109,0-2.014-0.904-2.014-2.016S7.389,2.895,8.5,2.895s2.014,0.902,2.014,2.014
	S9.609,6.924,8.5,6.924 M8.5,3.389c-0.838,0-1.52,0.683-1.52,1.521S7.662,6.43,8.5,6.43s1.521-0.683,1.521-1.521
	S9.338,3.389,8.5,3.389"/>
<path fill="#FFFFFF" d="M11.626,11.855H5.374c-0.388,0-0.702-0.314-0.702-0.703c0-2.109,1.717-3.828,3.828-3.828
	s3.828,1.719,3.828,3.828C12.328,11.541,12.014,11.855,11.626,11.855 M8.5,7.818c-1.838,0-3.334,1.496-3.334,3.334
	c0,0.115,0.093,0.209,0.208,0.209h6.252c0.115,0,0.208-0.094,0.208-0.209C11.834,9.314,10.338,7.818,8.5,7.818"/>
</svg>
