<?xml version="1.0" encoding="utf-8"?>
<!-- Generator: Adobe Illustrator 16.0.0, SVG Export Plug-In . SVG Version: 6.00 Build 0)  -->
<!DOCTYPE svg PUBLIC "-//W3C//DTD SVG 1.1//EN" "http://www.w3.org/Graphics/SVG/1.1/DTD/svg11.dtd">
<svg version="1.1" id="Layer_1" xmlns="http://www.w3.org/2000/svg" xmlns:xlink="http://www.w3.org/1999/xlink" x="0px" y="0px"
	 width="159px" height="268.219px" viewBox="113 0 159 268.219" enable-background="new 113 0 159 268.219" xml:space="preserve">
<path fill="#FFFFFF" d="M182.915,42.662c0,12.978-10.961,23.496-24.482,23.496s-24.482-10.519-24.482-23.496
	s10.961-23.496,24.482-23.496S182.915,29.685,182.915,42.662"/>
<path fill="#FFFFFF" d="M144.343,92.745c0.023-0.046,0.046-0.09,0.069-0.135c0.637-1.226-1.136-2.469-1.978-1.359
	c-64.875,85.456,27.938,94.114,69.546,163.937C209.404,184.391,109.225,161.307,144.343,92.745"/>
<path fill="#FFFFFF" d="M185.148,63.572c1.927-0.254,3.846-0.562,5.774-0.791c3.671-0.438,6.476-2.405,9.385-4.328
	c2.914-1.928,5.932-3.818,9.157-5.216c3.769-1.632,7.946-1.316,12.011-1.228c4.125,0.089,8.241,0.055,12.198-1.345
	c2.786-0.985,3.554-2.341,2.722-4.942c-2.605-8.145-7.424-15.111-13.314-21.491c-0.573-0.619-1.369-1.061-2.061-1.586
	c-0.228,0.105-0.261,0.119-0.486,0.224c-0.001,0.769-0.067,1.544,0.011,2.306c0.216,2.114-0.502,3.941-2.308,5.212
	c-1.729,1.215-3.57,2.373-5.536,3.191c-3.153,1.312-5.647,0.421-7.192-2.37c-1.273-2.303-2.463-4.652-3.557-7.033
	c-0.672-1.459-0.241-2.877,1.23-3.742c3.279-1.93,6.559-3.896,10.017-5.513c1.211-0.567,3.022-0.433,4.433-0.135
	c5.514,1.159,10.08,4.01,14.246,7.37c8.273,6.675,15.775,14.017,21.152,22.95c1.498,2.488,2.332,5.393,3.033,8.203
	c0.564,2.262-0.602,4.247-2.625,5.723c-2.946,2.149-6.362,3.39-9.957,4.055c-6.922,1.279-12.862,4.266-17.943,8.713
	c-5.018,4.39-11.152,5.877-17.691,6.699c-3.373,0.423-6.691,1.26-10.025,1.947c-3.813,0.787-6.625,2.993-8.575,5.95
	c-14.559,13.849-25.528,33.728,6.914,69.228c39.76,43.513,34.222,104.342,34.221,104.779
	c-43.211-93.299-67.132-82.396-85.133-123.619C125.17,90.805,181.342,64.073,185.148,63.572"/>
</svg>
