<?xml version="1.0" encoding="utf-8"?>
<!-- Generator: Adobe Illustrator 16.0.0, SVG Export Plug-In . SVG Version: 6.00 Build 0)  -->
<!DOCTYPE svg PUBLIC "-//W3C//DTD SVG 1.1//EN" "http://www.w3.org/Graphics/SVG/1.1/DTD/svg11.dtd">
<svg version="1.1" id="Layer_1" xmlns="http://www.w3.org/2000/svg" xmlns:xlink="http://www.w3.org/1999/xlink" x="0px" y="0px"
	 width="397px" height="251.438px" viewBox="82.965 154.965 397 251.438" enable-background="new 82.965 154.965 397 251.438"
	 xml:space="preserve">
<polygon fill="#FFFFFF" points="344.292,234.447 344.292,339.857 318.993,339.857 318.993,298.503 287.209,298.503 287.209,339.857 
	261.911,339.857 261.911,234.447 287.209,234.447 287.209,275.8 318.993,275.8 318.993,234.447 "/>
<rect x="351.591" y="234.447" fill="#FFFFFF" width="25.298" height="105.41"/>
<path fill="#FFFFFF" d="M473.539,326.559c-9.566,7.945-21.729,12.813-35.188,12.813c-29.839,0-54.165-24.327-54.165-54.166
	c0-30,24.326-54.326,54.165-54.326c13.46,0,25.622,4.867,35.188,12.974l-16.216,16.055c-5.352-4.054-12.002-6.326-18.974-6.326
	c-8.433,0-16.217,3.245-22.217,9.246c-6,6-9.243,13.946-9.243,22.377c0,8.433,3.243,16.217,9.243,22.217
	c6,6.001,13.784,9.243,22.217,9.243c6.972,0,13.622-2.27,18.974-6.324L473.539,326.559z"/>
<path fill="#FFCD0A" d="M212.447,359.741c0,3.041-2.151,5.341-6.28,5.341c-1.088,0-1.954-0.051-2.695-0.124v5.981
	c-0.346,0.102-0.667,0.125-1.014,0.125c-0.345,0-0.642-0.023-0.989-0.125v-15.599c1.162-0.325,2.671-0.545,4.674-0.545
	C210.419,354.797,212.447,356.773,212.447,359.741 M210.346,359.741c0-1.929-1.41-3.142-4.229-3.142c-0.889,0-1.83,0.076-2.645,0.2
	v6.4c0.692,0.073,1.558,0.125,2.671,0.125C209.159,363.326,210.346,361.867,210.346,359.741"/>
<path fill="#FFCD0A" d="M226.614,370.768c-0.347,0.199-0.694,0.273-1.188,0.273c-0.271,0-0.668-0.027-0.965-0.102l-1.63-4.428
	h-6.552l-1.582,4.428c-0.321,0.072-0.618,0.102-0.891,0.102c-0.444,0-0.815-0.074-1.185-0.273l5.882-15.699
	c0.347-0.123,0.718-0.146,1.065-0.146c0.37,0,0.69,0.023,1.037,0.146L226.614,370.768z M222.188,364.784l-2.274-6.132l-0.42-1.336
	l-0.421,1.336l-2.176,6.132H222.188z"/>
<path fill="#FFCD0A" d="M228.689,364.734v-9.666c0.37-0.073,0.691-0.123,1.014-0.123c0.345,0,0.692,0.05,1.039,0.123v9.666
	c0,2.744,1.432,4.674,4.276,4.674c2.893,0,4.302-1.93,4.302-4.674v-9.666c0.372-0.073,0.692-0.123,1.039-0.123
	c0.297,0,0.643,0.05,0.938,0.123v9.666c0,4.304-2.52,6.603-6.279,6.603C231.309,371.337,228.689,369.038,228.689,364.734"/>
<path fill="#FFCD0A" d="M254.919,369.977c0,0.299-0.024,0.619-0.124,0.965h-9.246V355.07c0.347-0.073,0.643-0.125,0.965-0.125
	c0.346,0,0.692,0.052,1.038,0.125v14.065h7.243C254.896,369.434,254.919,369.705,254.919,369.977"/>
<path fill="#FFCD0A" d="M275.439,355.068v15.871c-0.32,0.074-0.593,0.125-0.914,0.125c-0.347,0-0.717-0.051-1.088-0.125v-7.17
	h-8.629v7.17c-0.371,0.074-0.717,0.125-1.062,0.125c-0.297,0-0.57-0.051-0.94-0.125v-15.871c0.347-0.102,0.618-0.123,0.94-0.123
	c0.345,0,0.716,0.021,1.062,0.123v6.849h8.629v-6.849c0.371-0.073,0.691-0.123,1.038-0.123
	C274.796,354.945,275.119,354.995,275.439,355.068"/>
<path fill="#FFCD0A" d="M290.125,369.977c0,0.321-0.05,0.668-0.146,0.965h-10.087V355.07h9.839c0.098,0.271,0.146,0.64,0.146,0.964
	c0,0.321-0.05,0.618-0.146,0.89h-7.863v4.919h6.996c0.102,0.323,0.15,0.617,0.15,0.915c0,0.323-0.05,0.594-0.15,0.915h-6.996v5.44
	h8.111C290.075,369.384,290.125,369.68,290.125,369.977"/>
<path fill="#FFCD0A" d="M305.676,370.768c-0.348,0.199-0.693,0.273-1.188,0.273c-0.271,0-0.668-0.027-0.965-0.102l-1.629-4.428
	h-6.553l-1.583,4.428c-0.321,0.072-0.618,0.102-0.892,0.102c-0.442,0-0.813-0.074-1.184-0.273l5.881-15.699
	c0.347-0.123,0.718-0.146,1.065-0.146c0.37,0,0.688,0.023,1.037,0.146L305.676,370.768z M301.25,364.784l-2.273-6.132l-0.42-1.336
	l-0.421,1.336l-2.176,6.132H301.25z"/>
<path fill="#FFCD0A" d="M317.664,369.977c0,0.299-0.022,0.619-0.123,0.965h-9.245V355.07c0.347-0.073,0.642-0.125,0.965-0.125
	c0.345,0,0.69,0.052,1.038,0.125v14.065h7.242C317.642,369.434,317.664,369.705,317.664,369.977"/>
<path fill="#FFCD0A" d="M328.421,356.896h-5.045v14.067c-0.347,0.076-0.668,0.123-1.015,0.123c-0.321,0-0.641-0.047-0.988-0.123
	v-14.067h-5.067c-0.072-0.319-0.123-0.617-0.123-0.914c0-0.32,0.051-0.594,0.123-0.914h12.115c0.072,0.32,0.122,0.594,0.122,0.914
	C328.543,356.279,328.493,356.577,328.421,356.896"/>
<path fill="#FFCD0A" d="M343.797,355.068v15.871c-0.319,0.074-0.594,0.125-0.913,0.125c-0.349,0-0.719-0.051-1.09-0.125v-7.17
	h-8.628v7.17c-0.371,0.074-0.718,0.125-1.063,0.125c-0.297,0-0.57-0.051-0.94-0.125v-15.871c0.348-0.102,0.618-0.123,0.94-0.123
	c0.345,0,0.716,0.021,1.063,0.123v6.849h8.628v-6.849c0.371-0.073,0.692-0.123,1.038-0.123
	C343.153,354.945,343.478,354.995,343.797,355.068"/>
<path fill="#FFCD0A" d="M354.229,370.939v-15.871c0.369-0.123,0.691-0.148,1.016-0.148c0.32,0,0.642,0.025,0.989,0.148v15.871
	c-0.349,0.074-0.646,0.125-0.989,0.125C354.896,371.064,354.599,371.016,354.229,370.939"/>
<path fill="#FFCD0A" d="M373.167,355.068v15.725c-0.493,0.146-1.188,0.223-1.756,0.223l-8.431-11.918l-0.396-0.791v12.635
	c-0.348,0.101-0.594,0.123-0.94,0.123c-0.321,0-0.617-0.022-0.962-0.123v-15.676c0.37-0.197,1.11-0.42,1.779-0.271l8.404,11.767
	l0.42,0.717l-0.022-1.086v-11.324c0.37-0.072,0.593-0.122,0.938-0.122C372.524,354.945,372.848,354.995,373.167,355.068"/>
<path fill="#FFCD0A" d="M378.553,370.939v-15.871c0.369-0.123,0.691-0.148,1.015-0.148c0.319,0,0.642,0.025,0.988,0.148v15.871
	c-0.348,0.074-0.645,0.125-0.988,0.125C379.219,371.064,378.922,371.016,378.553,370.939"/>
<path fill="#FFCD0A" d="M395.413,356.896h-5.044v14.067c-0.348,0.076-0.669,0.123-1.017,0.123c-0.32,0-0.64-0.047-0.987-0.123
	v-14.067h-5.067c-0.073-0.319-0.123-0.617-0.123-0.914c0-0.32,0.05-0.594,0.123-0.914h12.115c0.072,0.32,0.122,0.594,0.122,0.914
	C395.535,356.279,395.485,356.577,395.413,356.896"/>
<path fill="#FFCD0A" d="M398.155,370.939v-15.871c0.37-0.123,0.691-0.148,1.016-0.148c0.321,0,0.641,0.025,0.989,0.148v15.871
	c-0.35,0.074-0.646,0.125-0.989,0.125C398.822,371.064,398.525,371.016,398.155,370.939"/>
<path fill="#FFCD0A" d="M416.823,370.768c-0.35,0.199-0.694,0.273-1.189,0.273c-0.27,0-0.667-0.027-0.964-0.102l-1.63-4.428h-6.552
	l-1.582,4.428c-0.322,0.072-0.618,0.102-0.894,0.102c-0.441,0-0.813-0.074-1.184-0.273l5.882-15.699
	c0.346-0.123,0.718-0.146,1.065-0.146c0.368,0,0.688,0.023,1.036,0.146L416.823,370.768z M412.396,364.784l-2.272-6.132
	l-0.421-1.336l-0.42,1.336l-2.178,6.132H412.396z"/>
<path fill="#FFCD0A" d="M428.342,356.896h-5.043v14.067c-0.347,0.076-0.669,0.123-1.016,0.123c-0.32,0-0.641-0.047-0.988-0.123
	v-14.067h-5.066c-0.074-0.319-0.123-0.617-0.123-0.914c0-0.32,0.049-0.594,0.123-0.914h12.113c0.073,0.32,0.123,0.594,0.123,0.914
	C428.465,356.279,428.415,356.577,428.342,356.896"/>
<path fill="#FFCD0A" d="M431.088,370.939v-15.871c0.368-0.123,0.69-0.148,1.014-0.148c0.321,0,0.643,0.025,0.989,0.148v15.871
	c-0.348,0.074-0.646,0.125-0.989,0.125C431.755,371.064,431.456,371.016,431.088,370.939"/>
<path fill="#FFCD0A" d="M449.875,355.117c-1.358,5.267-3.387,10.509-5.981,15.773c-0.347,0.1-0.693,0.123-1.038,0.123
	c-0.347,0-0.643-0.023-1.014-0.123c-2.621-5.242-4.574-10.482-6.011-15.773c0.398-0.146,0.793-0.246,1.286-0.246
	c0.273,0,0.57,0.023,0.865,0.1c1.188,4.646,2.819,9.293,4.997,13.894c2.148-4.623,3.781-9.271,4.82-13.894
	c0.318-0.076,0.616-0.1,0.862-0.1C449.135,354.871,449.528,354.971,449.875,355.117"/>
<path fill="#FFCD0A" d="M462.854,369.977c0,0.321-0.05,0.668-0.146,0.965H452.62V355.07h9.839c0.098,0.271,0.147,0.64,0.147,0.964
	c0,0.321-0.051,0.618-0.147,0.89h-7.862v4.919h6.996c0.103,0.323,0.15,0.617,0.15,0.915c0,0.323-0.049,0.594-0.15,0.915h-6.996v5.44
	h8.11C462.805,369.384,462.854,369.68,462.854,369.977"/>
<path fill="#FFCD0A" d="M285.55,385.17c0-4.869,3.513-8.381,7.985-8.381c2.176,0,3.734,0.645,4.822,1.459
	c-0.101,0.594-0.521,1.262-1.113,1.559c-1.063-0.742-2.2-1.139-3.709-1.139c-3.289,0-5.883,2.447-5.883,6.502
	c0,3.979,2.572,6.454,5.735,6.454c2.126,0,3.163-0.545,4.078-1.287c0.667,0.396,0.892,0.792,1.017,1.533
	c-0.916,0.791-2.476,1.632-5.095,1.632C288.714,393.502,285.55,390.041,285.55,385.17"/>
<path fill="#FFCD0A" d="M313.612,392.934c-0.35,0.199-0.694,0.273-1.189,0.273c-0.27,0-0.667-0.027-0.964-0.102l-1.63-4.426h-6.552
	l-1.582,4.426c-0.322,0.074-0.618,0.102-0.894,0.102c-0.442,0-0.813-0.074-1.184-0.273l5.882-15.699
	c0.346-0.123,0.717-0.146,1.065-0.146c0.368,0,0.688,0.023,1.034,0.146L313.612,392.934z M309.186,386.95l-2.272-6.132l-0.42-1.336
	l-0.421,1.336l-2.178,6.132H309.186z"/>
<path fill="#FFCD0A" d="M331.263,377.309v15.799c-0.348,0.074-0.645,0.125-0.966,0.125c-0.318,0-0.617-0.051-0.986-0.125v-9.616
	l0.146-2.474l-0.319,0.842l-4.428,9.716c-0.344,0.073-0.64,0.099-0.914,0.099c-0.27,0-0.544-0.023-0.915-0.099l-4.5-9.789
	l-0.319-0.769l0.099,2.474v9.616c-0.322,0.074-0.667,0.125-0.962,0.125c-0.324,0-0.595-0.051-0.965-0.125v-15.774
	c0.318-0.124,0.689-0.222,1.212-0.222c0.246,0,0.494,0.023,0.764,0.098l5.441,11.573l0.297,0.79l0.247-0.79l5.168-11.573
	c0.246-0.046,0.441-0.073,0.813-0.073C330.521,377.135,330.894,377.184,331.263,377.309"/>
<path fill="#FFCD0A" d="M346.665,381.907c0,3.041-2.152,5.341-6.281,5.341c-1.087,0-1.953-0.051-2.693-0.124v5.981
	c-0.348,0.102-0.668,0.125-1.015,0.125c-0.345,0-0.642-0.023-0.989-0.125v-15.6c1.162-0.324,2.672-0.544,4.676-0.544
	C344.637,376.963,346.665,378.939,346.665,381.907 M344.563,381.907c0-1.929-1.407-3.142-4.229-3.142
	c-0.888,0-1.829,0.075-2.645,0.199v6.401c0.691,0.073,1.559,0.125,2.672,0.125C343.376,385.492,344.563,384.033,344.563,381.907"/>
<path fill="#FFCD0A" d="M360.832,392.934c-0.349,0.199-0.694,0.273-1.189,0.273c-0.27,0-0.667-0.027-0.964-0.102l-1.63-4.426h-6.552
	l-1.582,4.426c-0.322,0.074-0.618,0.102-0.893,0.102c-0.442,0-0.813-0.074-1.185-0.273l5.882-15.699
	c0.347-0.123,0.718-0.146,1.065-0.146c0.368,0,0.688,0.023,1.035,0.146L360.832,392.934z M356.404,386.95l-2.272-6.132l-0.42-1.336
	l-0.421,1.336l-2.178,6.132H356.404z"/>
<path fill="#FFCD0A" d="M363.45,393.105v-15.871c0.37-0.123,0.69-0.148,1.015-0.148c0.319,0,0.643,0.025,0.988,0.148v15.871
	c-0.347,0.074-0.645,0.125-0.988,0.125C364.117,393.23,363.82,393.182,363.45,393.105"/>
<path fill="#FFCD0A" d="M382.413,384.898v7.367c-1.312,0.692-3.237,1.235-5.413,1.235c-4.5,0-8.11-3.114-8.11-8.306
	c0-5.242,3.783-8.406,8.036-8.406c2.57,0,4.327,0.667,5.364,1.434c-0.123,0.74-0.421,1.284-1.064,1.683
	c-1.187-0.769-2.396-1.212-4.3-1.212c-3.164,0-5.936,2.35-5.936,6.503c0,3.831,2.025,6.429,6.06,6.429
	c1.433,0,2.521-0.225,3.337-0.545v-4.277h-3.337c-0.102-0.346-0.124-0.643-0.124-0.938s0.022-0.618,0.124-0.966H382.413
	L382.413,384.898z"/>
<path fill="#FFCD0A" d="M398.63,377.234v15.725c-0.492,0.146-1.187,0.223-1.755,0.223l-8.432-11.918l-0.394-0.791v12.635
	c-0.349,0.101-0.596,0.123-0.94,0.123c-0.322,0-0.618-0.022-0.963-0.123v-15.676c0.37-0.197,1.111-0.42,1.779-0.271l8.404,11.767
	l0.42,0.717l-0.022-1.086v-11.324c0.37-0.072,0.592-0.122,0.938-0.122C397.988,377.111,398.311,377.161,398.63,377.234"/>
<path fill="#FFFFFF" d="M214.557,234.447h-25.298H163.96v61.201c1.407,1.693,2.895,3.422,4.522,5.201
	c9.018,9.868,15.754,20.623,20.777,31.392v-25.954h24.974c27.893,0,37.948-20.919,37.948-35.838
	C252.181,254.231,240.504,234.447,214.557,234.447 M226.395,279.368c-1.134,1.134-2.27,1.945-3.729,2.757
	c-2.271,0.972-5.027,1.459-8.433,1.459h-24.974V257.15h25.298c5.19,0,8.92,1.298,11.514,4.217c2.432,2.757,3.406,6.486,3.406,9.082
	C229.477,272.881,228.666,276.611,226.395,279.368"/>
<path fill="#FFCD0A" d="M150.915,188.662c0,12.978-10.961,23.497-24.482,23.497s-24.482-10.519-24.482-23.497
	c0-12.977,10.961-23.496,24.482-23.496S150.915,175.685,150.915,188.662"/>
<path fill="#FFFFFF" d="M112.343,238.745c0.023-0.045,0.046-0.089,0.069-0.134c0.637-1.226-1.136-2.469-1.978-1.36
	c-64.875,85.456,27.938,94.115,69.547,163.937C177.405,330.391,77.225,307.307,112.343,238.745"/>
<path fill="#FFCD0A" d="M153.148,209.572c1.927-0.254,3.846-0.562,5.774-0.791c3.671-0.438,6.476-2.406,9.384-4.329
	c2.914-1.927,5.933-3.818,9.158-5.215c3.769-1.632,7.946-1.317,12.011-1.228c4.125,0.089,8.241,0.055,12.198-1.345
	c2.786-0.985,3.553-2.34,2.721-4.942c-2.605-8.145-7.424-15.111-13.314-21.491c-0.573-0.619-1.369-1.061-2.061-1.586
	c-0.227,0.105-0.26,0.119-0.486,0.223c-0.001,0.769-0.067,1.544,0.011,2.306c0.216,2.114-0.502,3.942-2.308,5.212
	c-1.728,1.215-3.57,2.373-5.536,3.191c-3.153,1.312-5.648,0.421-7.192-2.37c-1.274-2.302-2.463-4.652-3.557-7.033
	c-0.671-1.459-0.241-2.877,1.23-3.742c3.28-1.93,6.559-3.897,10.017-5.513c1.211-0.567,3.022-0.432,4.433-0.135
	c5.514,1.16,10.08,4.01,14.246,7.371c8.273,6.674,15.775,14.016,21.153,22.95c1.498,2.488,2.331,5.392,3.032,8.203
	c0.565,2.262-0.601,4.247-2.625,5.723c-2.946,2.149-6.362,3.389-9.956,4.054c-6.922,1.28-12.863,4.266-17.944,8.713
	c-5.017,4.39-11.152,5.877-17.692,6.699c-3.372,0.423-6.69,1.26-10.024,1.948c-3.813,0.787-6.625,2.993-8.575,5.95
	c-14.559,13.848-25.528,33.727,6.914,69.227c39.76,43.513,34.222,104.342,34.221,104.78
	c-43.211-93.299-67.132-82.396-85.133-123.619C93.17,236.805,149.342,210.074,153.148,209.572"/>
</svg>
