<?xml version="1.0" encoding="utf-8"?>
<!-- Generator: Adobe Illustrator 16.0.0, SVG Export Plug-In . SVG Version: 6.00 Build 0)  -->
<!DOCTYPE svg PUBLIC "-//W3C//DTD SVG 1.1//EN" "http://www.w3.org/Graphics/SVG/1.1/DTD/svg11.dtd">
<svg version="1.1" id="Layer_1" xmlns="http://www.w3.org/2000/svg" xmlns:xlink="http://www.w3.org/1999/xlink" x="0px" y="0px"
	 width="50.833px" height="44.833px" viewBox="0 0 50.833 44.833" enable-background="new 0 0 50.833 44.833" xml:space="preserve">
<path fill="#608C3E" d="M47.524,5.349v34.594c-0.183,0.37-0.454,0.555-0.89,0.555c-10.631-0.007-21.263-0.005-31.895-0.005
	c-0.592,0-0.873-0.28-0.873-0.88V5.757c0-0.72,0.248-0.959,0.976-0.959h18.126h0.318c-0.107-0.455-0.201-0.881-0.313-1.304
	c-0.119-0.449-0.479-0.661-0.934-0.554c-0.598,0.141-1.198,0.276-1.788,0.447c-0.848,0.248-1.707,0.359-2.591,0.33
	c-0.885-0.03-1.768-0.005-2.651-0.002c-0.859,0-1.717,0-2.64,0c0.098-0.04,0.137-0.06,0.178-0.069
	c3.065-0.76,6.126-1.516,9.193-2.274c0.513-0.129,1.021-0.271,1.528-0.407h0.325c0.37,0.148,0.553,0.432,0.608,0.819
	c0.025,0.189,0.087,0.373,0.134,0.559c0.198,0.812,0.399,1.625,0.604,2.454h0.26c3.775,0,7.548,0.004,11.323-0.008
	C46.985,4.789,47.33,4.909,47.524,5.349 M30.691,30.766h14.345c0.657,0,0.927-0.267,0.927-0.92V7.382
	c0-0.646-0.276-0.917-0.932-0.917H16.366c-0.667,0-0.938,0.269-0.938,0.935v22.416c0,0.688,0.26,0.95,0.943,0.95H30.691z"/>
<path fill="#89AD74" d="M45.215,30.027H24.831c4.102-5.246,8.184-10.464,12.275-15.693c0.74,0.79,1.463,1.565,2.187,2.339
	c1.929,2.07,3.854,4.14,5.78,6.212c0.075,0.082,0.146,0.208,0.146,0.313c0.009,2.222,0.007,4.443,0.007,6.666
	C45.225,29.91,45.22,29.954,45.215,30.027"/>
<path d="M17.824,30.02c2.818-3.296,5.602-6.557,8.401-9.833c1.059,0.968,2.106,1.922,3.162,2.888
	c-0.562,0.72-1.114,1.427-1.666,2.135c-1.213,1.549-2.427,3.1-3.637,4.648c-0.084,0.107-0.164,0.178-0.318,0.176
	c-1.914-0.005-3.829-0.002-5.742-0.005C17.973,30.029,17.921,30.024,17.824,30.02"/>
<path fill="#89AD74" d="M24.053,17.089c-1.956,0.003-3.553-1.588-3.554-3.545c-0.002-1.963,1.582-3.548,3.544-3.55
	c1.967-0.001,3.551,1.578,3.551,3.541C27.597,15.497,26.012,17.086,24.053,17.089"/>
<path fill="#608C3E" d="M9.57,42.658c0.059,0.239,0.135,0.452,0.309,0.606h1.068c2.043-0.508,4.089-1.019,6.132-1.528
	c-0.422-0.035-0.838-0.035-1.252-0.035c-0.422,0-0.845,0.005-1.269-0.002c-1.079-0.017-1.9-0.859-1.9-1.936
	c0.002-2.275,0.001-4.55,0.001-6.827c0-0.065-0.006-0.136-0.01-0.216c-0.085,0.017-0.159,0.026-0.232,0.047
	c-0.866,0.213-1.729,0.429-2.593,0.644c-0.563,0.141-0.907-0.067-1.045-0.629c-0.731-2.978-1.463-5.953-2.195-8.929
	c-1.064-4.326-2.131-8.651-3.193-12.977c-0.146-0.592,0.058-0.92,0.655-1.067c2.31-0.569,4.622-1.14,6.934-1.711
	c0.558-0.138,1.113-0.276,1.663-0.413v-1.63c-0.103,0.023-0.186,0.04-0.268,0.061c-3.4,0.835-6.8,1.676-10.203,2.504
	C1.806,8.709,1.532,8.864,1.396,9.223v0.369c0.119,0.441,0.247,0.881,0.358,1.326C4.359,21.498,6.967,32.077,9.57,42.658"/>
</svg>
