<?xml version="1.0" encoding="utf-8"?>
<!-- Generator: Adobe Illustrator 16.0.0, SVG Export Plug-In . SVG Version: 6.00 Build 0)  -->
<!DOCTYPE svg PUBLIC "-//W3C//DTD SVG 1.1//EN" "http://www.w3.org/Graphics/SVG/1.1/DTD/svg11.dtd">
<svg version="1.1" id="Layer_1" xmlns="http://www.w3.org/2000/svg" xmlns:xlink="http://www.w3.org/1999/xlink" x="0px" y="0px"
	 width="17px" height="14.75px" viewBox="189.5 118.719 17 14.75" enable-background="new 189.5 118.719 17 14.75"
	 xml:space="preserve">
<path fill="#EB1E30" d="M197.863,126.557h3.63c0.256,0,0.463-0.207,0.462-0.462c0.001-0.256-0.206-0.463-0.462-0.464l-3.63,0.001
	v-3.63c0-0.256-0.207-0.463-0.463-0.464c-0.256,0.001-0.463,0.208-0.463,0.463v3.63h-3.63c-0.255,0-0.462,0.208-0.463,0.464
	c0.001,0.128,0.052,0.244,0.136,0.328c0.084,0.082,0.2,0.135,0.328,0.135h3.629v3.631c0.001,0.127,0.052,0.244,0.136,0.328
	c0.084,0.082,0.2,0.135,0.327,0.135c0.256,0,0.463-0.207,0.463-0.463V126.557z"/>
</svg>
