<?xml version="1.0" encoding="utf-8"?>
<!-- Generator: Adobe Illustrator 16.0.0, SVG Export Plug-In . SVG Version: 6.00 Build 0)  -->
<!DOCTYPE svg PUBLIC "-//W3C//DTD SVG 1.1//EN" "http://www.w3.org/Graphics/SVG/1.1/DTD/svg11.dtd">
<svg version="1.1" id="Layer_1" xmlns="http://www.w3.org/2000/svg" xmlns:xlink="http://www.w3.org/1999/xlink" x="0px" y="0px"
	 width="566.93px" height="566.93px" viewBox="0 0 566.93 566.93" enable-background="new 0 0 566.93 566.93" xml:space="preserve">
<path fill="#FFFFFF" d="M449.349,238.965l-16.735,42.128h9.297l2.94-8.08h17.551l3.01,8.08h9.301l-17.042-42.128H449.349z
	 M447.691,265.179l5.814-15.926l5.953,15.926H447.691z"/>
<path fill="#FFFFFF" d="M281.461,241.014c-2.779-1.302-6.225-2.04-12.077-2.04h-15.283v42.125h15.283
	c5.854,0,9.298-0.735,12.077-2.043c6.523-3.1,10.443-9.551,10.443-19.024C291.902,250.57,287.984,244.116,281.461,241.014
	 M278.11,271.628c-1.556,0.984-4.326,1.638-7.776,1.638h-7.643v-26.456h7.643c3.45,0,6.22,0.656,7.776,1.635
	c3.823,2.364,5.136,7.103,5.136,11.589C283.247,264.525,281.934,269.265,278.11,271.628"/>
<polygon fill="#FFFFFF" points="305.461,273.266 305.461,263.385 325.789,263.385 325.789,255.542 305.461,255.542 305.461,246.809 
	329.133,246.809 330.861,238.969 296.871,238.969 296.871,281.098 332.316,281.098 329.775,273.266 "/>
<rect x="419.216" y="238.965" fill="#FFFFFF" width="8.59" height="42.128"/>
<polygon fill="#FFFFFF" points="508.458,273.261 488.128,273.261 488.128,238.965 479.54,238.965 479.54,281.094 510.995,281.094 
	"/>
<polygon fill="#FFFFFF" points="367.346,265.995 346.282,238.969 336.918,238.969 336.918,281.098 345.471,281.098 345.471,251.378 
	368.159,281.098 375.936,281.098 375.936,238.969 367.346,238.969 "/>
<path fill="#FFFFFF" d="M156.415,240.358c-2.475-0.982-5.177-1.389-11.536-1.389h-17.311v42.129h8.59v-13.962h8.721
	c6.358,0,9.061-0.409,11.536-1.382c5.374-2.128,8.147-6.616,8.147-12.74C164.562,246.971,161.789,242.483,156.415,240.358
	 M152.725,258.485c-1.148,0.49-2.47,0.815-6.929,0.815h-9.638v-12.495h9.638c4.459,0,5.781,0.325,6.929,0.819
	c2.271,0.977,3.182,3.102,3.182,5.47C155.906,255.458,154.991,257.5,152.725,258.485"/>
<path fill="#FFFFFF" d="M196.887,263.79v-0.167c5.142-1.465,8.489-5.06,8.489-11.585c0-4.738-2.365-9.148-7.101-11.435
	c-2.027-0.979-4.563-1.634-9.198-1.634h-20.086v42.129h8.558v-14.941h5.136c2.201,0,3.69,0.245,5.074,0.819
	c3.75,1.547,6.458,5.717,9.368,14.123h9.976C204.567,273.669,201.217,266.975,196.887,263.79 M193.778,257.584
	c-0.949,0.49-2.269,0.743-4.87,0.743h-11.361v-11.52h11.361c2.601,0,3.921,0.243,4.87,0.732c1.961,0.982,2.94,2.857,2.94,4.985
	C196.719,254.729,195.74,256.607,193.778,257.584"/>
<polygon fill="#FFFFFF" points="379.284,246.811 392.909,246.811 392.909,281.098 401.462,281.098 401.462,246.811 413.977,246.811 
	416.51,238.969 379.284,238.969 "/>
<path fill="#FFFFFF" d="M238.716,264.44c0,2.69-0.341,4.084-0.846,5.225c-1.522,3.594-5.209,5.148-9.196,5.148
	c-4.027,0-7.682-1.555-9.236-5.148c-0.505-1.144-0.81-2.535-0.81-5.225v-25.473h-8.588v25.557c0,3.841,0.405,5.877,0.981,7.423
	c2.537,6.946,9.403,10.29,17.654,10.29c8.249,0,15.076-3.344,17.617-10.29c0.576-1.546,0.984-3.582,0.984-7.423v-25.557h-8.56
	V264.44z"/>
<path fill="#FFCD0A" d="M243.179,295.394c-2.654,11.864-5.799,23.354-10.457,34.517c-0.812,0.161-2.114,0.324-3.36,0.324
	c-1.192,0-2.384-0.163-3.306-0.324l-5.96-20.428l-0.865-3.847l-0.865,3.901l-6.611,20.317c-0.76,0.165-2.006,0.325-3.251,0.325
	c-1.411,0-2.658-0.16-3.63-0.325c-4.445-10.943-7.424-22.432-9.7-34.514c1.302-0.325,2.926-0.54,4.497-0.54
	c0.759,0,1.574,0.053,2.276,0.159c1.192,8.563,3.47,18.804,6.609,28.449l0.871-3.797l6.771-21.671
	c1.031-0.271,2.114-0.323,3.141-0.323c1.031,0,2.063,0.052,3.09,0.323l6.394,21.671l0.922,3.849
	c3.305-9.916,5.688-19.938,7.151-28.445c0.597-0.162,1.3-0.215,2.004-0.215C240.469,294.801,242.312,295.07,243.179,295.394"/>
<path fill="#FFCD0A" d="M276.934,327.092c0,0.976-0.108,1.951-0.376,2.871h-22.758v-34.784h22.27
	c0.217,0.867,0.325,1.896,0.325,2.816c0,0.977-0.108,1.846-0.325,2.766h-16.146v8.613h14.36c0.213,0.922,0.325,1.842,0.325,2.765
	c0,0.92-0.112,1.787-0.325,2.763h-14.36v9.534h16.634C276.826,325.305,276.934,326.225,276.934,327.092"/>
<path fill="#FFCD0A" d="M304.244,312.57c0-10.726,7.642-18.422,17.88-18.422c4.823,0,8.293,1.409,10.676,3.253
	c-0.325,1.839-1.626,3.901-3.359,4.821c-2.225-1.515-4.389-2.275-7.206-2.275c-6.558,0-11.378,4.767-11.378,12.623
	c0,7.747,4.82,12.516,11.105,12.516c4.063,0,6.178-1.083,8.019-2.599c1.954,1.137,2.819,2.492,3.251,4.823
	c-2.058,1.732-5.469,3.574-11.433,3.574C311.182,330.885,304.244,323.353,304.244,312.57"/>
<path fill="#FFCD0A" d="M372.516,329.585c-1.193,0.433-2.439,0.595-3.848,0.595c-0.811,0-1.788-0.053-2.546-0.217l-3.088-8.343
	h-13.655l-2.979,8.343c-0.922,0.164-1.896,0.217-2.765,0.217c-1.297,0-2.438-0.162-3.412-0.595l12.951-34.406
	c1.028-0.271,2.166-0.325,3.194-0.325c1.084,0,2.059,0.054,3.091,0.325L372.516,329.585z M361.137,316.418l-4.01-10.837
	l-0.974-3.196l-0.978,3.196l-3.899,10.837H361.137z"/>
<path fill="#FFCD0A" d="M409.251,329.638c-1.353,0.38-3.086,0.542-4.877,0.542c-0.596,0-1.407,0-1.949-0.108l-7.746-12.896h-0.813
	c-1.628,0-3.359,0-5.094-0.106v12.895c-1.03,0.217-2.008,0.325-3.088,0.325c-1.032,0-2.007-0.108-3.091-0.325v-34.242
	c3.197-0.705,7.423-1.139,11.109-1.139c9.645,0,13.816,4.281,13.816,10.78c0,5.204-2.765,8.672-6.771,10.459L409.251,329.638z
	 M394.026,311.92c5.204,0,7.264-2.708,7.264-6.23c0-3.63-2.331-5.797-7.318-5.797c-1.787,0-3.521,0.108-5.2,0.27v11.649
	C390.561,311.92,392.348,311.92,394.026,311.92"/>
<path fill="#FFCD0A" d="M443.388,327.092c0,0.976-0.109,1.951-0.38,2.871h-22.755v-34.784h22.269
	c0.217,0.867,0.326,1.896,0.326,2.816c0,0.977-0.109,1.846-0.326,2.766h-16.145v8.613h14.355c0.218,0.922,0.326,1.842,0.326,2.765
	c0,0.92-0.108,1.787-0.326,2.763h-14.355v9.534h16.631C443.278,325.305,443.388,326.225,443.388,327.092"/>
<path fill="#FFCD0A" d="M233.251,343.684c-10.942,5.746-25.443,12.868-42.04,19.793c-122.687-68.901-84.566-177.861-10.786-141.952
	c18.475,8.989,13.664-32.732,61.085-42.5c-3.313,0.012-6.659,0.146-10.063,0.565c-20.458,2.524-38.838,12.227-51.301,26.91
	c-15.105-11.289-34.985-16.283-55.448-13.76c-40.174,4.95-69.962,37.445-66.402,72.439
	c6.442,63.254,112.124,108.904,134.072,121.436c-0.05-0.016,26.052-22.996,44.502-39.234
	C239.206,345.327,236.122,342.176,233.251,343.684"/>
</svg>
