<?xml version="1.0" encoding="utf-8"?>
<!-- Generator: Adobe Illustrator 16.0.0, SVG Export Plug-In . SVG Version: 6.00 Build 0)  -->
<!DOCTYPE svg PUBLIC "-//W3C//DTD SVG 1.1//EN" "http://www.w3.org/Graphics/SVG/1.1/DTD/svg11.dtd">
<svg version="1.1" id="Layer_1" xmlns="http://www.w3.org/2000/svg" xmlns:xlink="http://www.w3.org/1999/xlink" x="0px" y="0px"
	 width="50.833px" height="44.833px" viewBox="170.754 157.63 50.833 44.833" enable-background="new 170.754 157.63 50.833 44.833"
	 xml:space="preserve">
<g>
	<path fill="#EE3B26" d="M217.057,161.112l-0.927-0.376c-1.101,2.707-2.22,5.41-3.305,8.134c-3.391,8.532-6.764,17.068-10.146,25.6
		c-0.168,0.432-0.322,0.687-0.384,0.747l-0.021,0.021l0.08,0.104l-0.041-0.124l-0.039,0.02l0.08,0.104l-0.041-0.124l0.043,0.13
		l-0.021-0.135l-0.022,0.005l0.043,0.13l-0.021-0.135l-0.002-0.001c-0.035,0.01-0.329-0.052-0.789-0.278
		c-4.358-2.073-8.715-4.161-13.173-6.288l-0.431,0.902l0.709,0.705c5.938-5.971,11.829-11.897,17.721-17.822l0.675-0.678
		l-1.462-1.589l-0.73,0.601c-6.768,5.56-13.532,11.118-20.315,16.692l0.635,0.772l0.43-0.902c-3.693-1.761-7.359-3.498-11.006-5.258
		l0.003,0.002l-0.06,0.123l0.077-0.114l-0.017-0.009l-0.06,0.123l0.077-0.114c-0.001,0.001-0.055-0.044-0.138-0.141
		c-0.085-0.095-0.195-0.234-0.354-0.394l-0.707,0.707h1v-0.775h-1l0.662,0.75c0.218-0.193,0.379-0.372,0.512-0.498
		c0.131-0.128,0.228-0.197,0.269-0.216l-0.004,0.002c13.749-6.762,27.509-13.508,41.268-20.271l0.011-0.005l-0.014,0.006
		l0.176-0.071l0.037-0.008v0v-0.165l-0.073,0.147l0.073,0.018v-0.165l-0.073,0.147v0.001l0.049,0.049l0.746-0.667h-1v0.581H217.057
		l-0.927-0.376L217.057,161.112h1v-0.581v-0.382l-0.254-0.285c-0.18-0.201-0.395-0.38-0.65-0.507
		c-0.255-0.128-0.547-0.193-0.817-0.191c-0.425,0.002-0.776,0.132-1.09,0.283l-0.003,0.001
		c-13.757,6.762-27.518,13.508-41.268,20.271l-0.003,0.002h-0.001c-0.34,0.171-0.577,0.386-0.767,0.567
		c-0.188,0.184-0.335,0.34-0.447,0.438l-0.338,0.299v1.227v0.414l0.293,0.293c0.066,0.063,0.171,0.195,0.321,0.362
		c0.152,0.164,0.354,0.379,0.691,0.546l0.003,0.002c3.656,1.764,7.324,3.503,11.015,5.262l0.574,0.273l0.491-0.403
		c6.784-5.574,13.548-11.133,20.315-16.692l-0.635-0.772l-0.736,0.677l0.174,0.189l0.736-0.677l-0.709-0.705
		c-5.893,5.925-11.784,11.851-17.721,17.822l-0.995,1l1.273,0.607c4.457,2.127,8.813,4.215,13.175,6.29
		c0.565,0.262,1.051,0.463,1.648,0.472c0.265,0.002,0.551-0.053,0.809-0.175c0.391-0.183,0.672-0.482,0.876-0.79
		c0.207-0.311,0.362-0.649,0.52-1.041c3.383-8.532,6.756-17.068,10.146-25.598c1.078-2.707,2.195-5.404,3.3-8.12l0.073-0.181v-0.195
		H217.057z"/>
	<path fill="#EE3B26" d="M181.816,189.22l-0.43,0.903c3.481,1.656,6.719,3.193,10.167,4.832l0.429-0.903l-0.563-0.826
		c-2.846,1.938-5.505,3.81-8.217,5.571c-0.187,0.122-0.295,0.132-0.302,0.13v0.043l0.01-0.041l-0.01-0.002v0.043l0.01-0.041
		l-0.027,0.11l0.071-0.089l-0.044-0.021l-0.027,0.11l0.071-0.089l-0.011,0.014l0.013-0.013l-0.002-0.001l-0.011,0.014l0.013-0.013
		c-0.01,0-0.126-0.181-0.128-0.579c-0.018-1.224-0.023-2.449-0.023-3.7c0-1.744,0.01-3.539,0.01-5.452H181.816l-0.43,0.903
		L181.816,189.22h-1c0,1.905-0.01,3.7-0.01,5.452c0,1.257,0.005,2.492,0.023,3.729c0.011,0.627,0.146,1.209,0.491,1.701
		c0.172,0.243,0.404,0.458,0.681,0.604c0.276,0.147,0.592,0.222,0.899,0.221c0.502-0.002,0.968-0.179,1.391-0.452
		c2.754-1.789,5.425-3.671,8.253-5.597l1.442-0.981l-1.575-0.748c-3.449-1.639-6.686-3.176-10.167-4.832l-1.43-0.68v1.583H181.816z"
		/>
</g>
</svg>
