<?xml version="1.0" encoding="utf-8"?>
<!-- Generator: Adobe Illustrator 16.0.0, SVG Export Plug-In . SVG Version: 6.00 Build 0)  -->
<!DOCTYPE svg PUBLIC "-//W3C//DTD SVG 1.1//EN" "http://www.w3.org/Graphics/SVG/1.1/DTD/svg11.dtd">
<svg version="1.1" id="Layer_1" xmlns="http://www.w3.org/2000/svg" xmlns:xlink="http://www.w3.org/1999/xlink" x="0px" y="0px"
	 width="17px" height="14.75px" viewBox="189.5 118.719 17 14.75" enable-background="new 189.5 118.719 17 14.75"
	 xml:space="preserve">
<path fill-rule="evenodd" clip-rule="evenodd" fill="#FFFFFF" d="M201.947,125.359l-0.74-0.283c-0.212-0.08-0.312-0.322-0.22-0.529
	l0.322-0.725c0.067-0.148,0.035-0.324-0.08-0.438l-0.519-0.519c-0.115-0.116-0.291-0.147-0.439-0.082l-0.725,0.324
	c-0.206,0.092-0.449-0.008-0.529-0.22l-0.283-0.74c-0.059-0.153-0.205-0.253-0.368-0.253h-0.732c-0.164,0-0.31,0.1-0.369,0.253
	l-0.283,0.74c-0.08,0.212-0.322,0.312-0.528,0.22l-0.724-0.324c-0.15-0.066-0.324-0.034-0.44,0.082l-0.518,0.519
	c-0.116,0.114-0.148,0.29-0.082,0.438l0.322,0.725c0.094,0.207-0.007,0.449-0.219,0.529l-0.74,0.283
	c-0.152,0.059-0.253,0.205-0.253,0.368v0.733c0,0.164,0.101,0.31,0.253,0.367l0.74,0.283c0.212,0.082,0.313,0.324,0.219,0.53
	l-0.322,0.724c-0.066,0.149-0.034,0.324,0.082,0.44l0.518,0.519c0.116,0.115,0.29,0.147,0.44,0.08l0.724-0.322
	c0.206-0.092,0.448,0.008,0.528,0.219l0.283,0.74c0.06,0.152,0.205,0.254,0.369,0.254h0.732c0.163,0,0.31-0.102,0.368-0.254
	l0.283-0.74c0.08-0.211,0.323-0.311,0.529-0.219l0.725,0.322c0.148,0.067,0.324,0.035,0.439-0.08l0.519-0.519
	c0.115-0.116,0.147-0.291,0.08-0.44l-0.322-0.724c-0.092-0.206,0.008-0.448,0.22-0.53l0.74-0.283
	c0.151-0.058,0.253-0.203,0.253-0.367v-0.733C202.2,125.564,202.099,125.417,201.947,125.359 M198.366,127.929
	c-1.318,0.25-2.451-0.884-2.202-2.201c0.139-0.732,0.738-1.33,1.47-1.47c1.317-0.249,2.451,0.884,2.201,2.202
	C199.696,127.193,199.097,127.79,198.366,127.929"/>
</svg>
