<?xml version="1.0" encoding="utf-8"?>
<!-- Generator: Adobe Illustrator 16.0.0, SVG Export Plug-In . SVG Version: 6.00 Build 0)  -->
<!DOCTYPE svg PUBLIC "-//W3C//DTD SVG 1.1//EN" "http://www.w3.org/Graphics/SVG/1.1/DTD/svg11.dtd">
<svg version="1.1" id="Layer_1" xmlns="http://www.w3.org/2000/svg" xmlns:xlink="http://www.w3.org/1999/xlink" x="0px" y="0px"
	 width="17px" height="14.75px" viewBox="189.5 118.719 17 14.75" enable-background="new 189.5 118.719 17 14.75"
	 xml:space="preserve">
<path fill="#1E1F20" d="M202.952,125.88l-3.476-2.544c-0.066-0.049-0.162,0-0.162,0.083v1.247c-0.343,0.074-0.679,0.164-1.014,0.285
	c-0.764,0.274-1.509,0.676-2.114,1.243c-0.616,0.553-1.033,1.303-1.201,2.044c-0.112,0.364-0.11,0.741-0.132,1.101
	c-0.003,0.36,0.062,0.714,0.092,1.058c0.095-0.342,0.153-0.68,0.276-0.993c0.139-0.31,0.252-0.618,0.454-0.867
	c0.351-0.528,0.826-0.907,1.362-1.107c0.53-0.208,1.104-0.28,1.686-0.267c0.197,0.004,0.394,0.023,0.591,0.048v1.296
	c0,0.083,0.096,0.13,0.162,0.083l3.476-2.545C203.009,126.003,203.009,125.92,202.952,125.88"/>
</svg>
