<?xml version="1.0" encoding="utf-8"?>
<!-- Generator: Adobe Illustrator 16.0.0, SVG Export Plug-In . SVG Version: 6.00 Build 0)  -->
<!DOCTYPE svg PUBLIC "-//W3C//DTD SVG 1.1//EN" "http://www.w3.org/Graphics/SVG/1.1/DTD/svg11.dtd">
<svg version="1.1" id="Layer_1" xmlns="http://www.w3.org/2000/svg" xmlns:xlink="http://www.w3.org/1999/xlink" x="0px" y="0px"
	 width="50.833px" height="44.833px" viewBox="170.754 157.63 50.833 44.833" enable-background="new 170.754 157.63 50.833 44.833"
	 xml:space="preserve">
<path fill="#FFFFFF" d="M203.963,184.373l-14.658,0.025c-0.926,0.002-1.677-0.748-1.678-1.674l-0.007-5.323
	c-0.001-0.926,0.748-1.676,1.673-1.678l14.656-0.025c0.924-0.001,1.674,0.746,1.677,1.671l0.01,5.327
	C205.637,183.621,204.889,184.372,203.963,184.373"/>
<path fill="#FFFFFF" d="M184.071,190.141l-2.372,0.006c-0.924,0.003-1.675-0.746-1.676-1.67l-0.03-16.797
	c-0.001-0.924,0.752-1.679,1.675-1.679h2.372c0.924,0,1.672,0.748,1.674,1.671l0.028,16.793
	C185.742,189.39,184.995,190.139,184.071,190.141"/>
<path fill="#FFFFFF" d="M176.449,186.24h-2.373c-0.925,0-1.675-0.749-1.677-1.674l-0.015-8.955
	c-0.002-0.925,0.747-1.676,1.671-1.678l2.37-0.005c0.924-0.002,1.674,0.745,1.676,1.669l0.019,8.969
	C178.122,185.486,177.369,186.24,176.449,186.24"/>
<path fill="#FFFFFF" d="M208.241,190.101l4.327-0.01c0.384-0.001,0.695-0.313,0.695-0.696l-0.035-18.756
	c0-0.384-0.312-0.694-0.695-0.692l-4.328,0.01c-0.384,0.001-0.694,0.313-0.694,0.697l0.034,18.754
	C207.545,189.792,207.857,190.101,208.241,190.101"/>
<path fill="#FFFFFF" d="M216.828,186.168l2.374-0.006c0.924-0.003,1.672-0.754,1.67-1.679l-0.018-8.956
	c-0.001-0.923-0.751-1.672-1.677-1.672h-2.37c-0.923,0-1.673,0.749-1.671,1.674l0.015,8.969
	C215.153,185.422,215.904,186.17,216.828,186.168"/>
</svg>
